<mxfile host="Electron" agent="Mozilla/5.0 (Macintosh; Intel Mac OS X 10_15_7) AppleWebKit/537.36 (KHTML, like Gecko) draw.io/25.0.2 Chrome/128.0.6613.186 Electron/32.2.5 Safari/537.36" version="25.0.2">
  <diagram name="Page-1" id="Ro_1WkAaO-WPQY0rQmcc">
    <mxGraphModel dx="1008" dy="824" grid="1" gridSize="10" guides="1" tooltips="1" connect="1" arrows="1" fold="1" page="1" pageScale="1" pageWidth="850" pageHeight="1100" math="0" shadow="0">
      <root>
        <mxCell id="0" />
        <mxCell id="1" parent="0" />
        <mxCell id="qV_2sx_EkgjLKJArsu8J-1" value="+" style="ellipse;whiteSpace=wrap;html=1;aspect=fixed;fillColor=none;" vertex="1" parent="1">
          <mxGeometry x="360" y="40" width="40" height="40" as="geometry" />
        </mxCell>
        <mxCell id="qV_2sx_EkgjLKJArsu8J-2" value="-" style="ellipse;whiteSpace=wrap;html=1;aspect=fixed;fillColor=none;" vertex="1" parent="1">
          <mxGeometry x="280" y="120" width="40" height="40" as="geometry" />
        </mxCell>
        <mxCell id="qV_2sx_EkgjLKJArsu8J-3" value="+" style="ellipse;whiteSpace=wrap;html=1;aspect=fixed;fillColor=none;" vertex="1" parent="1">
          <mxGeometry x="240" y="200" width="40" height="40" as="geometry" />
        </mxCell>
        <mxCell id="qV_2sx_EkgjLKJArsu8J-4" value="3" style="ellipse;whiteSpace=wrap;html=1;aspect=fixed;fillColor=none;" vertex="1" parent="1">
          <mxGeometry x="320" y="200" width="40" height="40" as="geometry" />
        </mxCell>
        <mxCell id="qV_2sx_EkgjLKJArsu8J-5" value="1" style="ellipse;whiteSpace=wrap;html=1;aspect=fixed;fillColor=none;" vertex="1" parent="1">
          <mxGeometry x="200" y="280" width="40" height="40" as="geometry" />
        </mxCell>
        <mxCell id="qV_2sx_EkgjLKJArsu8J-6" value="+" style="ellipse;whiteSpace=wrap;html=1;aspect=fixed;fillColor=none;" vertex="1" parent="1">
          <mxGeometry x="280" y="280" width="40" height="40" as="geometry" />
        </mxCell>
        <mxCell id="qV_2sx_EkgjLKJArsu8J-7" value="+" style="ellipse;whiteSpace=wrap;html=1;aspect=fixed;fillColor=none;" vertex="1" parent="1">
          <mxGeometry x="240" y="360" width="40" height="40" as="geometry" />
        </mxCell>
        <mxCell id="qV_2sx_EkgjLKJArsu8J-8" value="4" style="ellipse;whiteSpace=wrap;html=1;aspect=fixed;fillColor=none;" vertex="1" parent="1">
          <mxGeometry x="200" y="440" width="40" height="40" as="geometry" />
        </mxCell>
        <mxCell id="qV_2sx_EkgjLKJArsu8J-9" value="5" style="ellipse;whiteSpace=wrap;html=1;aspect=fixed;fillColor=none;" vertex="1" parent="1">
          <mxGeometry x="280" y="440" width="40" height="40" as="geometry" />
        </mxCell>
        <mxCell id="qV_2sx_EkgjLKJArsu8J-10" value="2" style="ellipse;whiteSpace=wrap;html=1;aspect=fixed;fillColor=none;" vertex="1" parent="1">
          <mxGeometry x="320" y="360" width="40" height="40" as="geometry" />
        </mxCell>
        <mxCell id="qV_2sx_EkgjLKJArsu8J-11" value="+" style="ellipse;whiteSpace=wrap;html=1;aspect=fixed;fillColor=none;" vertex="1" parent="1">
          <mxGeometry x="440" y="120" width="40" height="40" as="geometry" />
        </mxCell>
        <mxCell id="qV_2sx_EkgjLKJArsu8J-12" value="6" style="ellipse;whiteSpace=wrap;html=1;aspect=fixed;fillColor=none;" vertex="1" parent="1">
          <mxGeometry x="400" y="200" width="40" height="40" as="geometry" />
        </mxCell>
        <mxCell id="qV_2sx_EkgjLKJArsu8J-13" value="8" style="ellipse;whiteSpace=wrap;html=1;aspect=fixed;fillColor=none;" vertex="1" parent="1">
          <mxGeometry x="480" y="200" width="40" height="40" as="geometry" />
        </mxCell>
        <mxCell id="qV_2sx_EkgjLKJArsu8J-14" value="" style="endArrow=none;html=1;rounded=0;" edge="1" parent="1" source="qV_2sx_EkgjLKJArsu8J-2" target="qV_2sx_EkgjLKJArsu8J-1">
          <mxGeometry width="50" height="50" relative="1" as="geometry">
            <mxPoint x="400" y="340" as="sourcePoint" />
            <mxPoint x="450" y="290" as="targetPoint" />
          </mxGeometry>
        </mxCell>
        <mxCell id="qV_2sx_EkgjLKJArsu8J-15" value="" style="endArrow=none;html=1;rounded=0;" edge="1" parent="1" source="qV_2sx_EkgjLKJArsu8J-11" target="qV_2sx_EkgjLKJArsu8J-1">
          <mxGeometry width="50" height="50" relative="1" as="geometry">
            <mxPoint x="324" y="136" as="sourcePoint" />
            <mxPoint x="376" y="84" as="targetPoint" />
          </mxGeometry>
        </mxCell>
        <mxCell id="qV_2sx_EkgjLKJArsu8J-16" value="" style="endArrow=none;html=1;rounded=0;" edge="1" parent="1" source="qV_2sx_EkgjLKJArsu8J-3" target="qV_2sx_EkgjLKJArsu8J-2">
          <mxGeometry width="50" height="50" relative="1" as="geometry">
            <mxPoint x="334" y="146" as="sourcePoint" />
            <mxPoint x="386" y="94" as="targetPoint" />
          </mxGeometry>
        </mxCell>
        <mxCell id="qV_2sx_EkgjLKJArsu8J-17" value="" style="endArrow=none;html=1;rounded=0;" edge="1" parent="1" source="qV_2sx_EkgjLKJArsu8J-4" target="qV_2sx_EkgjLKJArsu8J-2">
          <mxGeometry width="50" height="50" relative="1" as="geometry">
            <mxPoint x="344" y="156" as="sourcePoint" />
            <mxPoint x="396" y="104" as="targetPoint" />
          </mxGeometry>
        </mxCell>
        <mxCell id="qV_2sx_EkgjLKJArsu8J-18" value="" style="endArrow=none;html=1;rounded=0;" edge="1" parent="1" source="qV_2sx_EkgjLKJArsu8J-12" target="qV_2sx_EkgjLKJArsu8J-11">
          <mxGeometry width="50" height="50" relative="1" as="geometry">
            <mxPoint x="354" y="166" as="sourcePoint" />
            <mxPoint x="406" y="114" as="targetPoint" />
          </mxGeometry>
        </mxCell>
        <mxCell id="qV_2sx_EkgjLKJArsu8J-19" value="" style="endArrow=none;html=1;rounded=0;" edge="1" parent="1" source="qV_2sx_EkgjLKJArsu8J-13" target="qV_2sx_EkgjLKJArsu8J-11">
          <mxGeometry width="50" height="50" relative="1" as="geometry">
            <mxPoint x="364" y="176" as="sourcePoint" />
            <mxPoint x="416" y="124" as="targetPoint" />
          </mxGeometry>
        </mxCell>
        <mxCell id="qV_2sx_EkgjLKJArsu8J-20" value="" style="endArrow=none;html=1;rounded=0;" edge="1" parent="1" source="qV_2sx_EkgjLKJArsu8J-5" target="qV_2sx_EkgjLKJArsu8J-3">
          <mxGeometry width="50" height="50" relative="1" as="geometry">
            <mxPoint x="374" y="186" as="sourcePoint" />
            <mxPoint x="426" y="134" as="targetPoint" />
          </mxGeometry>
        </mxCell>
        <mxCell id="qV_2sx_EkgjLKJArsu8J-21" value="" style="endArrow=none;html=1;rounded=0;" edge="1" parent="1" source="qV_2sx_EkgjLKJArsu8J-6" target="qV_2sx_EkgjLKJArsu8J-3">
          <mxGeometry width="50" height="50" relative="1" as="geometry">
            <mxPoint x="384" y="196" as="sourcePoint" />
            <mxPoint x="436" y="144" as="targetPoint" />
          </mxGeometry>
        </mxCell>
        <mxCell id="qV_2sx_EkgjLKJArsu8J-22" value="" style="endArrow=none;html=1;rounded=0;" edge="1" parent="1" source="qV_2sx_EkgjLKJArsu8J-7" target="qV_2sx_EkgjLKJArsu8J-6">
          <mxGeometry width="50" height="50" relative="1" as="geometry">
            <mxPoint x="394" y="206" as="sourcePoint" />
            <mxPoint x="446" y="154" as="targetPoint" />
          </mxGeometry>
        </mxCell>
        <mxCell id="qV_2sx_EkgjLKJArsu8J-23" value="" style="endArrow=none;html=1;rounded=0;" edge="1" parent="1" source="qV_2sx_EkgjLKJArsu8J-10" target="qV_2sx_EkgjLKJArsu8J-6">
          <mxGeometry width="50" height="50" relative="1" as="geometry">
            <mxPoint x="404" y="216" as="sourcePoint" />
            <mxPoint x="456" y="164" as="targetPoint" />
          </mxGeometry>
        </mxCell>
        <mxCell id="qV_2sx_EkgjLKJArsu8J-24" value="" style="endArrow=none;html=1;rounded=0;" edge="1" parent="1" source="qV_2sx_EkgjLKJArsu8J-8" target="qV_2sx_EkgjLKJArsu8J-7">
          <mxGeometry width="50" height="50" relative="1" as="geometry">
            <mxPoint x="414" y="226" as="sourcePoint" />
            <mxPoint x="466" y="174" as="targetPoint" />
          </mxGeometry>
        </mxCell>
        <mxCell id="qV_2sx_EkgjLKJArsu8J-25" value="" style="endArrow=none;html=1;rounded=0;" edge="1" parent="1" source="qV_2sx_EkgjLKJArsu8J-9" target="qV_2sx_EkgjLKJArsu8J-7">
          <mxGeometry width="50" height="50" relative="1" as="geometry">
            <mxPoint x="424" y="236" as="sourcePoint" />
            <mxPoint x="476" y="184" as="targetPoint" />
          </mxGeometry>
        </mxCell>
      </root>
    </mxGraphModel>
  </diagram>
</mxfile>
